<svg width="28" height="27" fill="none" xmlns="http://www.w3.org/2000/svg"><path d="M23.5767 17.0503c-2.1973-3.2129-4.5665-6.7385-10.1054-5.2543-2.4689.6615-4.11209 1.9347-5.02362 3.8923-.80741 1.7341-.95252 3.7708-1.10074 5.7107-.18385 2.378 2.28851 4.0674 4.44676 3.0206 1.7706-.8592 4.1724-2.1511 8.0257-2.4281 1.485-.1069 1.6278-.0988 2.0117-.2017 2.0059-.5376 2.9764-2.9434 1.7456-4.7395Z" fill="#FBDD7B"/><path d="M21.8312 21.7897c2.0058-.5375 2.9763-2.9434 1.7455-4.7395-2.1973-3.2129-4.5665-6.7384-10.1054-5.2543l2.8876 10.7766c2.7744-.7434 4.5693-.5408 5.4723-.7828Z" fill="#FECB3E"/><path d="m16.5662 16.4036-1.0848.2906-.2906-1.0847c-.0963-.3595-.4658-.5728-.8253-.4765-.3594.0963-.5728.4658-.4765.8253l.2907 1.0847-1.0848.2907c-.3594.0963-.5728.4658-.4764.8253.0963.3594.4658.5728.8252.4764l1.0848-.2906.2907 1.0848c.0963.3594.4658.5727.8252.4764.3595-.0963.5728-.4658.4765-.8252l-.2907-1.0848 1.0848-.2907c.3595-.0963.5728-.4658.4765-.8253-.0963-.3594-.4658-.5727-.8253-.4764Z" fill="#FFF8E0"/><path d="m16.1209 19.0808-.2907-1.0848 1.0848-.2906c.3595-.0963.5728-.4658.4765-.8253-.0963-.3594-.4658-.5728-.8253-.4765l-1.0848.2907-.2906-1.0848c-.0963-.3594-.4658-.5728-.8253-.4764l1.2789 4.773c.3595-.0963.5728-.4658.4765-.8253Z" fill="#FFE799"/><path d="M21.2765 6.21234c-1.3159.3526-2.0996 1.71006-1.747 3.02598.3526 1.31588 1.71 2.09968 3.0259 1.74708 1.316-.3526 2.1431-1.72171 1.7905-3.03763-.3526-1.31593-1.7535-2.08803-3.0694-1.73543ZM16.4203 8.91634c1.5118-.4051 2.3253-2.2714 1.817-4.16851-.5084-1.89711-2.146-3.10663-3.6579-2.70153-1.5118.40509-2.3253 2.2714-1.817 4.16851.5084 1.89711 2.146 3.10662 3.6579 2.70153Z" fill="#FECB3E"/><path d="M9.47767 10.7767c1.51183-.4051 2.32533-2.27141 1.81703-4.16852-.5083-1.89711-2.14602-3.10663-3.65785-2.70153-1.51184.40509-2.32534 2.2714-1.81701 4.16851.50833 1.89711 2.146 3.10664 3.65783 2.70154ZM3.92002 10.8631c-1.31592.3526-2.14304 1.7217-1.79044 3.0376.3526 1.3159 1.75345 2.088 3.06937 1.7354 1.31593-.3526 2.09965-1.7101 1.74705-3.026-.3526-1.3159-1.71005-2.0996-3.02598-1.747Z" fill="#FBDD7B"/></svg>